<?xml version="1.0" encoding="utf-8"?>
<!-- Generator: Adobe Illustrator 25.0.0, SVG Export Plug-In . SVG Version: 6.00 Build 0)  -->
<svg version="1.1" xmlns="http://www.w3.org/2000/svg" xmlns:xlink="http://www.w3.org/1999/xlink" x="0px" y="0px"
	 viewBox="0 0 500 500" style="enable-background:new 0 0 500 500;" xml:space="preserve">
<style type="text/css">
	.st0{display:none;}
	.st1{fill:#D28D66;}
	.st2{fill:#935A40;}
	.st3{fill:#D7E3DA;}
	.st4{fill:#435751;}
	.st5{fill:#6C9070;}
	.st6{fill:none;stroke:#6C9070;stroke-width:0.9189;stroke-miterlimit:10;}
	.st7{fill:#381F13;}
	.st8{fill:none;stroke:#F1DAB8;stroke-width:0.9189;stroke-miterlimit:10;}
	.st9{fill:#E89F81;}
	.st10{fill:#72351C;}
	.st11{fill:#F1DAB8;}
	.st12{fill:#E6C79F;}
	.st13{fill:#FFFFFF;}
	.st14{fill:#D87258;}
	.st15{fill:#DD7260;}
	.st16{fill:#E5906F;}
	.st17{fill:none;stroke:#FFFFFF;stroke-width:2;stroke-linecap:round;stroke-miterlimit:10;stroke-dasharray:4,9;}
</style>
<g id="BACKGROUND" class="st0">
</g>
<g id="OBJECTS">
	<g>
		<path class="st1" d="M157.97,403.63H98.69c-5.11,0-9.53-3.83-10.6-9.2l-5.58-27.79h91.64l-5.58,27.79
			C167.5,399.8,163.08,403.63,157.97,403.63z"/>
		<path class="st2" d="M174.15,366.64c0,6.44-20.51,11.67-45.82,11.67s-45.82-5.22-45.82-11.67c0-6.44,20.51-11.67,45.82-11.67
			S174.15,360.2,174.15,366.64z"/>
		<path class="st3" d="M144.75,315.16c16.45-2.35,32.22,6.43,40.51,21.89c0.35,0.65,0.72,1.3,1.1,1.94
			c12.97,21.61,39.23,26.04,57.57,12.89c8.92-6.39,19.52-9.44,30.23-9.55c26.05-0.28,53.44-8.75,78.27-25.97
			c61.43-42.62,83.93-122.66,50.24-178.78c-33.69-56.12-110.8-67.06-172.23-24.44c-8,5.55-15.33,11.73-21.97,18.41
			c-17.45,17.56-38.18,30.97-61.14,38.14c-9.6,3-19.24,7.67-28.43,14.05c-38.98,27.04-55.23,74.52-36.31,106.04
			C94.83,310.16,118.8,318.87,144.75,315.16z"/>
		<g>
			<path class="st4" d="M145.21,362.39c-3.14-28.89,2.7-45.17,2.95-45.85l2.76,1.17c-0.06,0.16-5.81,16.29-2.76,44.31L145.21,362.39
				z"/>
		</g>
		<path class="st5" d="M224,227.48c-8.1,3.49-16.65,5.49-25.38,5.47c-4.83-0.01-9.98,0.87-15.21,3.17
			c-13.68,6.03-21.42,29.11-21.42,29.11l60.1-4.35c0,0,33.46,3.23,48.97-7.85c5.47-3.91,11.15-12.27,11.15-12.27
			S252.23,215.32,224,227.48z"/>
		<g>
			<path class="st4" d="M139.84,248.43c0,0-33.09-34.96-7.12-71.13c18.2-25.34,21.96-33.04,27.59-42.98
				c15.96-28.16,32.45-16.48,32.45-16.48s-18.49,31.33-19.36,59.05C171.89,225.76,139.84,248.43,139.84,248.43z"/>
		</g>
		<g>
			<path class="st4" d="M164.8,252.57c8.13-6.59,16.03-7.38,35.51,1.38c5.59,2.51,11.85,6.23,23.39,6.75c0,0-62.18,6.75-71.31,20.24
				v-0.68C152.4,269.48,156.8,259.06,164.8,252.57z"/>
		</g>
		<path class="st5" d="M175.41,130.48c-3.58,9.68-6.91,19.45-10.11,29.26c-3.22,9.81-6.24,19.68-9.09,29.61
			c-5.79,19.83-10.82,39.89-15.13,60.11c-2.09,10.13-3.97,20.3-5.55,30.53c-1.5,10.24-2.85,20.5-3.81,30.8
			c-0.9,10.31-1.45,20.64-1.57,30.99c-0.07,10.34,0.36,20.67,1.3,30.96l-2.95,0.39c-1.28-10.4-1.83-20.88-1.96-31.36
			c-0.06-10.48,0.52-20.94,1.34-31.37c0.9-10.42,2.18-20.8,3.81-31.1c1.66-10.3,3.61-20.54,5.78-30.72
			c4.38-20.35,9.83-40.42,16.15-60.14C160.02,168.75,167.05,149.28,175.41,130.48z"/>
		<path class="st5" d="M167.98,271.87c-3.68,1.83-7,4.08-10.08,6.63c-3.13,2.48-5.86,5.45-8.44,8.55
			c-5.02,6.37-8.37,14.14-10.53,22.18c-1.26,3.98-1.83,8.17-2.61,12.3c-0.23,1.03-0.3,2.08-0.39,3.14l-0.28,3.16
			c-0.16,2.11-0.43,4.21-0.51,6.33c0.04,4.25-0.17,8.49-0.07,12.75c0.26,4.25,0.52,8.5,0.72,12.77l-2.95,0.36
			c-0.42-4.32-0.79-8.64-1.14-12.98c-0.21-4.34-0.15-8.71-0.16-13.07c0.07-2.18,0.34-4.36,0.5-6.54l0.28-3.27
			c0.09-1.09,0.16-2.18,0.39-3.26c0.81-4.3,1.33-8.68,2.77-12.84c2.42-8.38,6.1-16.54,11.59-23.23c2.8-3.26,5.77-6.43,9.38-8.65
			C159.98,273.93,163.9,272.19,167.98,271.87z"/>
		<g>
			<path class="st4" d="M271.34,241.99c0,0-56.76,18.09-93.85,17.48"/>
		</g>
		<g>
			<path class="st5" d="M94.52,191.77c4.21,8.23,9.64,15.6,16.4,21.53c3.74,3.28,7.21,7.47,9.89,12.82
				c7.02,13.98-0.61,37.11-0.61,37.11L76.3,218.9c0,0-27.78-20.31-33.24-39.45c-1.92-6.75-1.39-17.09-1.39-17.09
				S79.87,163.12,94.52,191.77z"/>
			<g>
				<path class="st4" d="M125.5,251.52c-2.4-10.64-8.05-16.63-28.28-23.14c-5.8-1.87-12.84-3.27-22.07-10.73
					c0,0,44.11,47.6,43.21,64.26l0.4-0.52C125.12,273.05,127.86,262,125.5,251.52z"/>
			</g>
			<path class="st5" d="M111.67,264.27c2.77,3.34,4.72,7.36,6.34,11.45c1.66,4.1,2.72,8.42,3.68,12.74
				c1.85,8.68,2.73,17.55,3.01,26.42l0.06,6.66c-0.06,2.22-0.21,4.43-0.32,6.64c-0.12,4.44-0.76,8.82-1.19,13.23
				c-0.5,4.4-1.4,8.72-2.1,13.08c-0.92,4.31-1.92,8.59-2.93,12.87l-2.88-0.8l2.49-12.78c0.59-4.3,1.33-8.58,1.84-12.88
				c0.4-4.32,1.02-8.62,1.12-12.95c0.09-2.16,0.24-4.33,0.29-6.49l0-6.49c-0.12-8.65-0.82-17.31-2.47-25.77
				c-0.86-4.22-1.86-8.4-3.03-12.53C114.43,272.51,113.18,268.4,111.67,264.27z"/>
			<g>
				<path class="st4" d="M49.35,170.72c0,0,33.23,52.68,62.27,77.48"/>
			</g>
		</g>
		<path class="st5" d="M157.77,306.38c0,0-14.79-7.35-22.78,2.15c-7.99,9.51,5.42,23.92,14.26,30.97
			c8.84,7.05,16.26,28.52,30.52,33.42c0,0,8.27-17.17,2.28-34.31c-2.48-7.09,0.32-27.47-11.47-35.3
			C165.52,299.95,157.77,306.38,157.77,306.38z"/>
		<g>
			<path class="st4" d="M159.69,305.02c-0.92,0.59-1.57,1.09-1.81,1.28c10.22,11.81,16.44,45.81,17.52,50.37
				C175.09,355.07,170.38,319.01,159.69,305.02z"/>
		</g>
		<g>
			<path class="st4" d="M115.2,367.15l-2.95-0.37c3.08-28.32-1.83-81.58-1.88-82.11l2.95-0.32
				C113.37,284.88,118.32,338.48,115.2,367.15z"/>
		</g>
		<path class="st5" d="M103.61,273.76c0,0,14.79-7.35,22.78,2.15c7.99,9.51-5.42,23.92-14.26,30.97
			c-8.84,7.05-16.26,28.52-30.52,33.42c0,0-8.27-17.17-2.28-34.31c2.48-7.09-0.32-27.47,11.47-35.3
			C95.87,267.33,103.61,273.76,103.61,273.76z"/>
		<g>
			<path class="st4" d="M101.7,272.4c0.92,0.59,1.57,1.09,1.81,1.28c-10.22,11.81-16.44,45.81-17.52,50.37
				C86.29,322.45,91,286.39,101.7,272.4z"/>
		</g>
		<g>
			<path class="st4" d="M373.15,250.32c0,0,25.88,57.81,28.38,78.62c2.33,19.42-8.4,74.7-8.4,74.7h-56.46l-4.51-48.64l-0.68,48.64
				H284.1l-2.79-45.35c-0.54-10.89,1.84-27.68,4.94-51.39L373.15,250.32z"/>
		</g>
		<line class="st6" x1="327.65" y1="353.1" x2="325.9" y2="403.63"/>
		<path class="st6" d="M318.09,321.06l3.77,23.84c0.61,3.88,3.08,7.12,6.5,8.52l3.8,1.56"/>
		<path class="st7" d="M283.32,315.15c0,0,40.88,12.4,71.17-8.43v-13.66l-69.51,6.64L283.32,315.15z"/>
		<rect x="308.17" y="304.22" class="st8" width="16.96" height="14.59"/>
		<polygon class="st4" points="297.45,303.22 291.92,302.57 290.18,319.63 295.71,320.28 		"/>
		<path class="st9" d="M250.64,283.73c0,0,60.5-1.05,70.95-2.22c27.09-3.05,19.75-35.81-2.39-35.81c-13.85,0-60.51,21.15-74.3,21.51
			L250.64,283.73z"/>
		<path class="st5" d="M371.11,306.71c0,0,4.93,13.56,14.27,25.71c3.16,4.11,6.82,8.06,10.97,11.26L371.11,306.71z"/>
		<line class="st6" x1="391.94" y1="338.59" x2="381.84" y2="403.63"/>
		<g>
			<path class="st10" d="M354.93,80.26c2.83,18.2-8.6,35.43-25.53,38.48c-16.93,3.05-32.51-9.33-35.79-27.45
				c-5.03-27.76,8.6-35.43,25.53-38.48C336.07,49.76,352.1,62.05,354.93,80.26z"/>
		</g>
		<path class="st11" d="M286.25,306.89c0,0-5.7-0.55-7.08-7.8c-2.15-11.31,0.68-27.88-0.3-49.03
			c-1.64-35.36-4.47-79.13,10.34-100.39c3.91-5.61,27.13-13.14,39.33-13.76c14.52-0.75,50.06,2.56,56.44,15.15
			c2.96,5.84,20.16,104.84,14.65,132.27c-3.77,18.79,2.25,37.73-44.01,30.79c-11.99-1.8-28.21-6.27-39.79-7.41
			C301.59,305.31,292.66,310.22,286.25,306.89z"/>
		<g>
			<path class="st12" d="M388.67,167.08c-0.62,0.11-1.27,0.19-1.96,0.2c-7.7,0.08-15.25,0.95-22.81,2.21
				c10.38,37.77-1.81,83.03-33.33,104.47c-15.61,10.62-33.73,15.41-52.19,16.68c0.08,3.07,0.3,5.9,0.79,8.45
				c1.38,7.24,7.08,7.8,7.08,7.8c6.42,3.33,15.35-1.58,29.58-0.18c11.57,1.14,27.8,5.61,39.79,7.41c46.26,6.94,40.24-12,44.01-30.79
				C403.9,262.02,394.48,197.55,388.67,167.08z"/>
		</g>
		<path class="st13" d="M328.53,135.91c-6.63,0.34-16.51,2.72-24.78,5.72c1.91,17.09,11.09,24.41,24.09,24.41
			c18.51,0,27.52-15.46,27.77-28.32C345.37,136.04,334.92,135.58,328.53,135.91z"/>
		<g>
			<path class="st10" d="M354.5,93.61l-3.17,15.07c-0.8,3.79-3.33,6.88-6.72,8.2l-8.96,3.5L354.5,93.61z"/>
		</g>
		<path class="st14" d="M327.83,153.18c0,0,2.23-5.37,4.34-4.74c2.1,0.63,11.47,1.05,11.47,1.05s-9.53,0.88-11.11,2.33
			C330.96,153.27,327.25,154.41,327.83,153.18z"/>
		<g>
			<path class="st9" d="M310.95,139.3c8.79-2.06,8.25-6.76,8.25-6.79l6.51-20.61l21.59-12.13l-3.65,19.61c0,0.01-0.31,3.55-0.6,6.67
				c-0.84,8.85,6.31,10.78,6.31,10.78s-2.75,21.04-22.97,21.04C312.32,157.88,310.95,139.3,310.95,139.3z"/>
			<g>
				<path class="st15" d="M319.2,132.51L319.2,132.51l6.49-20.57l3.35,0.04l11.21,0.28l1.09,4.15c-3.25,9.31-6.66,18.12-13.73,21.41
					C323.86,139.58,319.52,136.91,319.2,132.51z"/>
			</g>
		</g>
		<path class="st9" d="M321.03,133.43c14.85-2.66,27.34-21.4,25.06-35.12c0,0-1.76-18.07-5.89-22.82
			c-7.17-8.24-28.83-4.14-37.04-0.51c-12.59,5.55-4.92,31.04-4.92,31.04C301.62,127.75,317.4,134.08,321.03,133.43z"/>
		<path class="st10" d="M336.04,63.11c-8.56-1.26-38.19,5.12-38.19,5.12s8.25-0.16,22.34,4.38c3.86,1.24,7.21,11.82,11.49,12.03
			c4.42,0.21,6.28,6.49,7.97,10.89l2.41-1.25l-0.35-3.35c-0.05-3.48,2.37-6.41,5.59-6.81l0,0C347.3,84.11,344.6,64.37,336.04,63.11z
			"/>
		<g>
			<path class="st10" d="M322.27,101.37c-0.13-0.83-0.03-1.66,0.28-2.33c0.34-0.73,0.9-1.21,1.55-1.33c1.3-0.24,2.56,1,2.84,2.81
				l-1.11,0.2c-0.17-1.11-0.87-1.94-1.55-1.82c-0.4,0.07-0.63,0.45-0.73,0.67c-0.2,0.44-0.27,1.02-0.18,1.59L322.27,101.37z"/>
		</g>
		<g>
			<path class="st10" d="M302.52,104.92c-0.28-1.81,0.53-3.42,1.83-3.66c0.53-0.1,1.06,0.05,1.54,0.42c0.67,0.51,1.14,1.39,1.3,2.4
				l-1.11,0.2c-0.11-0.69-0.42-1.29-0.84-1.61c-0.16-0.12-0.41-0.26-0.71-0.21c-0.67,0.12-1.08,1.16-0.91,2.27L302.52,104.92z"/>
		</g>
		<g>
			<path class="st10" d="M318.22,95.18l-0.79-0.99c6.67-6.13,12.69-2.26,12.75-2.23l-0.64,1.11
				C329.34,92.93,324.2,89.68,318.22,95.18z"/>
		</g>
		<g>
			<path class="st15" d="M313.83,113.5c-1.06,0-1.7-0.22-2.08-0.72c-0.64-0.82-0.37-2.06,0.07-4.12c0.18-0.85,0.4-1.84,0.59-3
				c0.07-0.41,0.11-0.83,0.12-1.24c0.06-2.35-0.82-4.52-2.48-6.11l0.74-0.89c1.91,1.83,2.93,4.33,2.86,7.03
				c-0.01,0.47-0.06,0.95-0.14,1.42c-0.2,1.18-0.42,2.2-0.6,3.06c-0.33,1.52-0.59,2.72-0.3,3.08c0.12,0.16,0.52,0.33,1.6,0.28
				l0.05,1.19C314.1,113.49,313.96,113.5,313.83,113.5z"/>
		</g>
		<g>
			<path class="st10" d="M298.1,98.8l-0.79-0.99c1.6-1.47,3.5-2.42,5.64-2.82c2.01-0.38,4.04-0.06,5.86,0.93l-0.54,1.16
				c-1.59-0.86-3.35-1.14-5.11-0.8C301.23,96.63,299.53,97.48,298.1,98.8z"/>
		</g>
		<g>
			<path class="st15" d="M331.15,105.88c0.07,0.47,0.49,0.78,0.92,0.71c0.44-0.08,0.73-0.52,0.66-0.99
				c-0.07-0.47-0.49-0.78-0.92-0.71C331.38,104.97,331.08,105.41,331.15,105.88z"/>
			<path class="st15" d="M328.04,108.83c0.03,0.2,0.21,0.34,0.4,0.3c0.19-0.03,0.31-0.22,0.28-0.43c-0.03-0.2-0.21-0.34-0.4-0.3
				C328.13,108.43,328.01,108.62,328.04,108.83z"/>
			<path class="st15" d="M332.66,110.34c0.06,0.41,0.43,0.69,0.81,0.62c0.38-0.07,0.64-0.46,0.58-0.87
				c-0.06-0.41-0.43-0.69-0.81-0.62C332.85,109.54,332.59,109.93,332.66,110.34z"/>
			<path class="st15" d="M335.79,106.19c0.04,0.23,0.24,0.38,0.45,0.34c0.21-0.04,0.36-0.25,0.32-0.48
				c-0.04-0.23-0.24-0.38-0.45-0.34S335.75,105.97,335.79,106.19z"/>
			<path class="st15" d="M328.9,113.13c0.05,0.34,0.36,0.58,0.68,0.52c0.32-0.06,0.54-0.38,0.48-0.73
				c-0.05-0.34-0.36-0.58-0.68-0.52C329.06,112.46,328.84,112.79,328.9,113.13z"/>
			<path class="st15" d="M323.67,107.8c0.05,0.31,0.32,0.52,0.61,0.46s0.48-0.34,0.43-0.65c-0.05-0.31-0.32-0.52-0.61-0.46
				C323.81,107.2,323.62,107.49,323.67,107.8z"/>
			<path class="st15" d="M325.3,111.43c-0.08-0.53-0.55-0.9-1.05-0.81c-0.5,0.09-0.83,0.6-0.75,1.13c0.08,0.53,0.55,0.9,1.05,0.81
				C325.04,112.47,325.38,111.97,325.3,111.43z"/>
			<path class="st15" d="M305.56,111.01c0.06,0.41,0.42,0.69,0.81,0.62c0.38-0.07,0.64-0.46,0.57-0.87
				c-0.06-0.41-0.42-0.69-0.8-0.62C305.75,110.21,305.49,110.6,305.56,111.01z"/>
			<path class="st15" d="M305.74,116.24c-0.09-0.57-0.59-0.95-1.12-0.86c-0.53,0.1-0.89,0.63-0.8,1.2c0.09,0.57,0.59,0.95,1.12,0.86
				C305.47,117.35,305.83,116.81,305.74,116.24z"/>
			<path class="st15" d="M301.65,112.95c0.05,0.33,0.34,0.56,0.65,0.5c0.31-0.06,0.52-0.37,0.47-0.7c-0.05-0.33-0.34-0.56-0.65-0.5
				C301.8,112.31,301.6,112.62,301.65,112.95z"/>
		</g>
		<path class="st13" d="M320.95,114.63c0.47,3.02-1.42,5.87-4.23,6.37c-2.81,0.5-5.46-1.53-5.93-4.55L320.95,114.63z"/>
		<g>
			<path class="st10" d="M330.81,75.5c0,0-31.93,23.92-40.93,16.17c-9-7.75-10.38-25.09-6.59-27.91
				C287.07,60.93,330.81,75.5,330.81,75.5z"/>
		</g>
		<g>
			<path class="st10" d="M352.99,72.97c0,0,4.6,14.75,5.83,16.78l-7.38-8.03L352.99,72.97z"/>
		</g>
		<path class="st9" d="M352.78,90.31c0.77,5.01-2.7,10.05-8.23,11.37l-2.36-11.88c-0.79-4,2.61-7.86,6.24-6.65
			C350.52,83.84,352.09,85.82,352.78,90.31z"/>
		<g>
			<path class="st15" d="M346.51,88.52c-0.17-0.67,0.58-1.14,1.05-0.67c0.77,0.79,1.45,2.01,1.18,3.75
				c-0.39,2.47-1.68,5.09-2.67,4.34c-0.99-0.75-0.1-0.73,0.58-3.96C346.91,90.71,346.76,89.48,346.51,88.52z"/>
		</g>
		<g>
			<path class="st10" d="M331.95,54.85c0,0-3.48-4.88-7.29-5.06c0,0,8.7-2.72,11.21,4.36c0,0,6.68-5.01,9.02-1.62
				c0,0-4.86,1.65-5.77,4.63C338.21,60.13,333.5,58.35,331.95,54.85z"/>
		</g>
		<path class="st11" d="M420.12,197.7c0,0-22.53-42.97-36.23-50.36c-20.13-10.86-27.59,21.12-15.41,48.93
			c7.71,17.6,13.65,19.08,33.84,48.76c6.38,9.38,21.6,3.03,23.87,1.81C439.59,239.64,420.12,197.7,420.12,197.7z"/>
		<g>
			<path class="st12" d="M367.34,199.29c-6.09-39.59,6.98-52.5,7.54-53.03l0.98,1.2c-0.03,0.03-3.29,3.21-5.77,11.11
				c-2.3,7.31-4.39,20.27-1.28,40.46L367.34,199.29z"/>
		</g>
		<g>
			<path class="st12" d="M430.15,228.09c-1.79-3.76-4.44-7.82-8.21-10.3c-3.49-2.3-7.43-2.87-11.72-1.71
				c-8.38,2.27-13.52,11.78-15.91,18.08c0.19,0.29,0.65,0.36,0.84,0.65c2.25-6.15,6.98-15.63,15.27-17.88
				c4.07-1.1,7.8-0.56,11.09,1.6c4.53,2.98,7.43,8.51,9.11,12.8C430.5,230.28,430.34,229.2,430.15,228.09z"/>
		</g>
		<path class="st9" d="M399.23,229.85c-8.87,8.31-12.74,40.83-14.15,47.08c0,0-6.62,25.56-8.08,42.46c0,0,2.65,5.28,3.71,6.92
			c0.88,1.36,3.93,5.12,3.93,5.12c10.11-11.23,26.57-50.01,26.57-50.01c6.12-12.5,11.58-25.46,14.14-34.32
			C431.97,224.14,413.66,216.33,399.23,229.85z"/>
		<g>
			<path class="st15" d="M213.45,268.85c0,0,7.48-3.52,8.31-3.52c0.83,0,19.2,1.69,19.2,1.69l3.95,0.19c0,0,12.12,8.48,5.75,16.52
				c0,0-3.3,0.6-5.84,1.24c-1.58,0.39-3.05,1.17-4.31,2.25l-0.23,0.2c-0.63,0.54-1.39,0.89-2.19,1.01l-2.74,0.41
				C235.32,288.85,213.91,275.15,213.45,268.85z"/>
		</g>
		<path class="st16" d="M234.81,274.1c-1.39,0.41-3.32,2.59-3.32,2.59s-1.24-2.35-3.6-2.23c-0.65,0.03-3.32,2.23-3.32,2.23
			l-8.74-8.94h-8.62c-2.07,0-4.01,1.38-4.57,3.52c-0.13,0.48-0.17,0.96-0.08,1.41c0.42,2.08,1.8,3.13,3.88,3.27
			c2.08,0.15,9.97-0.89,9.97-0.89s0.42,4.76,0.55,6.7s3.74,3.72,3.74,3.72h2.35c0,0,0.83,2.98,1.8,3.42
			c0.97,0.45,3.18,0.15,4.43-0.89c0,0,3.07,2.63,5.54,2.28V274.1z"/>
		<path class="st14" d="M208.96,270.72c0.29,0.39,0.15,0.28,0.27,0.74c0.09,0.45,0.13,0.96-0.01,1.44
			c-0.28,0.89-0.77,1.56-1.34,2.15c0.26-0.79,0.54-1.59,0.61-2.31c0.01-0.33-0.03-0.67-0.15-1.01c-0.09-0.34-0.45-1.16-0.57-1.47
			L208.96,270.72z"/>
		<polygon class="st14" points="224.57,276.69 221.4,279.54 223.66,276.34 		"/>
		<g>
			<path class="st14" d="M231.49,276.69c-0.04,0.83-0.31,1.65-0.71,2.4c-0.38,0.76-1.03,1.41-1.67,1.91
				c-0.64,0.52-1.28,1.04-1.94,1.53c-0.66,0.49-1.33,0.98-2.03,1.43c0.57-0.61,1.17-1.17,1.78-1.73c0.61-0.56,1.24-1.09,1.87-1.62
				c0.66-0.51,1.2-1.04,1.66-1.72C230.89,278.22,231.24,277.48,231.49,276.69z"/>
		</g>
		<g>
			<path class="st14" d="M238.14,276.54l-0.95,2.98c-0.3,0.99-0.62,1.98-0.74,2.97l-0.01,0.09l-0.05,0.05
				c-0.79,0.87-1.6,1.72-2.47,2.52c0.65-0.99,1.36-1.92,2.1-2.84l-0.06,0.14c0.03-0.55,0.15-1.07,0.29-1.58
				c0.14-0.51,0.31-1.01,0.5-1.5C237.15,278.39,237.59,277.44,238.14,276.54z"/>
		</g>
		<path class="st9" d="M233.93,269.2c0,0,10.05,2.2,13.05,7.49c3,5.28,1.34,7.49,1.34,7.49l4.66-0.45c0,0,2.36-11.33-2.88-17.24
			c0,0-8.61,1.37-11.04,0.36C236.63,265.83,230,268.02,233.93,269.2z"/>
		<line class="st8" x1="318.91" y1="311.52" x2="325.12" y2="311.43"/>
		<g>
			<g>
				<path class="st11" d="M251.92,312.07c-3.63,8.85-24.09,11.82-31.24,5.94c-9.53-7.84-4.29-47.92-4.29-47.92l13.02-3.59
					C229.41,266.51,256.77,300.27,251.92,312.07z"/>
			</g>
			<g>
				<polygon class="st7" points="227.78,260.54 214.95,264.08 216.39,270.1 229.21,266.56 				"/>
			</g>
			<g>
				<path class="st7" d="M227.78,260.54l-23.39,6.45c-2.19,0.6-4.41-0.81-4.97-3.16l0,0c-0.56-2.35,0.43-4.34,3.7-5.02
					c0,0,23-5.23,23.46-3.33L227.78,260.54z"/>
			</g>
			<g>
				<path class="st7" d="M210.55,280.99c-0.21,0.06-0.43,0.08-0.66,0.05c-1.03-0.11-1.78-1.11-1.68-2.22l1.74-18.21
					c0.11-1.11,1.03-1.91,2.06-1.8c1.03,0.11,4.54,1.34,4.43,2.45l-4.5,17.97C211.87,280.11,211.29,280.79,210.55,280.99z"/>
			</g>
		</g>
		<path class="st9" d="M225.9,263.12l4.89-1.65c0.97-0.33,2.01-0.24,2.91,0.26c2.16,1.18,6.12,3.52,7.25,5.3
			c0,0-4.82,2.46-8.45,2.88c-0.95,0.11-3.83,0-3.83,0c-1.4,2.52-3.29,4.55-5.57,6.19c-2.36,1.69-5.53-0.05-5.53-3.11v0
			c0-1.15,0.48-2.24,1.33-2.95c1.45-1.23,3.68-3.27,4.57-4.85C224.03,264.19,224.88,263.46,225.9,263.12z"/>
		<path class="st16" d="M207.76,267.75c0,0,3.28,1.01,3.2,4.91c-0.08,3.9-3.68,3.3-3.68,3.3L207.76,267.75z"/>
		<g>
			<path class="st9" d="M223.98,296.34c0,0,0.87-2.86,0-4.02c-0.87-1.16-4.29-1.44-4.29-1.44s0.91-2.51-0.65-4.41
				c-0.43-0.53-3.7-1.37-3.7-1.37l0.4-5.33c-0.01-0.01-0.03-0.02-0.04-0.02c-2.62-1.41-5.78-0.95-7.9,1.23
				c-0.35,0.36-0.66,0.68-0.91,0.93c-1.31,1.33-0.34,5.46-0.34,5.46l1.48,1.97c0,0-1.63,2.57-1.34,3.66
				c0.29,1.09,1.89,2.76,3.43,3.14c0,0,0,4.75,2.13,6.38c0.45,0.35,7.49,0.96,7.49,0.96l6.97-2.8
				C226.7,300.67,226.84,297.3,223.98,296.34z"/>
			<g>
				<polygon class="st15" points="215.34,285.09 211.28,284.23 215.02,284.11 				"/>
			</g>
			<g>
				<path class="st15" d="M219.69,290.87c-0.63,0.56-1.42,0.9-2.24,1.06c-0.81,0.19-1.74,0.03-2.48-0.18
					c-0.77-0.21-1.54-0.42-2.29-0.7c-0.76-0.27-1.51-0.55-2.24-0.93c0.81,0.02,1.6,0.13,2.39,0.26c0.79,0.12,1.56,0.31,2.34,0.49
					c0.79,0.23,1.45,0.37,2.23,0.36C218.15,291.24,218.91,291.1,219.69,290.87z"/>
			</g>
			<g>
				<path class="st15" d="M223.98,296.34c-0.9,0.46-1.81,0.83-2.71,1.23c-0.89,0.39-1.81,0.74-2.57,1.24l-0.13,0.09l-0.11-0.01
					c-1.12-0.13-2.24-0.32-3.35-0.65c1.14-0.17,2.27-0.22,3.4-0.2l-0.25,0.07c0.88-0.66,1.83-1.01,2.78-1.3
					C222,296.55,222.98,296.36,223.98,296.34z"/>
			</g>
		</g>
		<path class="st11" d="M202.75,262.91c0.26,1.09-0.04,2.1-0.66,2.28c-0.62,0.17-1.34-0.57-1.6-1.65c-0.26-1.09,0.04-2.1,0.66-2.28
			C201.77,261.09,202.49,261.83,202.75,262.91z"/>
		<path class="st17" d="M196,261.27c0,0-22.58-49.39-69.66-35.57"/>
		<path class="st17" d="M128.33,244.71c0,0,54.82,9.57,67.67,19.56"/>
		<path class="st17" d="M196,267.13c0,0-42.5,0.22-53.94,5.52"/>
		<path class="st17" d="M196,269.01c0,0-25.83,13.39-36.94,29.45"/>
	</g>
</g>
</svg>
